<svg xmlns="http://www.w3.org/2000/svg" viewBox="0 0 930 720" font-family="Georgia, 'Times New Roman', serif">
<defs><pattern id="court-earth" patternUnits="userSpaceOnUse" width="16" height="16"><rect width="16" height="16" fill="#D9C28E"/><circle cx="4" cy="6" r="0.6" fill="#A88E58"/><circle cx="12" cy="2" r="0.6" fill="#A88E58"/></pattern><pattern id="oshirasu-sand" patternUnits="userSpaceOnUse" width="12" height="12"><rect width="12" height="12" fill="#F2EAD0"/><circle cx="3" cy="4" r="0.5" fill="#C9B884"/><circle cx="8" cy="2" r="0.5" fill="#C9B884"/></pattern><pattern id="garden-stipple" patternUnits="userSpaceOnUse" width="14" height="14"><rect width="14" height="14" fill="#BFCFA0"/><circle cx="3" cy="3" r="0.8" fill="#7A8C5C"/><circle cx="10" cy="9" r="0.8" fill="#7A8C5C"/></pattern></defs>
<rect x="0" y="0" width="930" height="720" fill="#EFE3C2"/>
<rect x="60" y="60" width="810" height="600" fill="url(#court-earth)" stroke="none" stroke-width="0"/>
<text x="465" y="33" text-anchor="middle" font-size="20" font-weight="bold" fill="#3A2E1C">County Magistracy (example)</text>
<text x="465" y="51" text-anchor="middle" font-size="10" font-style="italic" fill="#6B4F2A">(perimeter-first composed draft - refine by hand)</text>
<rect x="210" y="168" width="495" height="72" fill="url(#garden-stipple)" stroke="#9C7A40" stroke-width="0.8"/>
<text x="458" y="204" text-anchor="middle" font-size="11" font-style="italic" fill="#5C4318">garden</text>
<rect x="264" y="438" width="396" height="117" fill="url(#oshirasu-sand)" stroke="#9C7A40" stroke-width="0.8"/>
<text x="462" y="496" text-anchor="middle" font-size="11" font-style="italic" fill="#5C4318">oshirasu</text>
<rect x="414" y="558" width="108" height="93" fill="url(#court-earth)" stroke="#9C7A40" stroke-width="0.8"/>
<text x="468" y="604" text-anchor="middle" font-size="11" font-style="italic" fill="#5C4318">forecourt</text>
<rect x="69" y="60" width="276" height="108" fill="#DDB87A" stroke="#5A3F1E" stroke-width="2"/>
<text x="207" y="117" text-anchor="middle" font-size="10" font-weight="bold" fill="#3A2E1C">residence</text>
<rect x="69" y="615" width="126" height="45" fill="#8C6F3E" stroke="#4A3318" stroke-width="2"/>
<text x="132" y="640" text-anchor="middle" font-size="10" font-weight="bold" fill="#3A2E1C">gatehouse</text>
<rect x="216" y="591" width="99" height="69" fill="#C9A57A" stroke="#6B4F2A" stroke-width="2"/>
<text x="266" y="628" text-anchor="middle" font-size="10" font-weight="bold" fill="#3A2E1C">stables</text>
<rect x="366" y="60" width="198" height="45" fill="#C9A57A" stroke="#6B4F2A" stroke-width="2"/>
<text x="465" y="86" text-anchor="middle" font-size="10" font-weight="bold" fill="#3A2E1C">servants</text>
<rect x="714" y="339" width="156" height="84" fill="#F2EFE4" stroke="#4A3318" stroke-width="2"/>
<text x="792" y="384" text-anchor="middle" font-size="10" font-weight="bold" fill="#3A2E1C">granary</text>
<rect x="60" y="339" width="102" height="90" fill="#F2EFE4" stroke="#4A3318" stroke-width="2"/>
<text x="111" y="387" text-anchor="middle" font-size="10" font-weight="bold" fill="#3A2E1C">tax archive</text>
<rect x="60" y="189" width="132" height="108" fill="#C9A57A" stroke="#6B4F2A" stroke-width="2"/>
<text x="126" y="246" text-anchor="middle" font-size="10" font-weight="bold" fill="#3A2E1C">kitchen</text>
<rect x="750" y="69" width="120" height="96" fill="#C9876C" stroke="#6B2A18" stroke-width="2"/>
<text x="810" y="120" text-anchor="middle" font-size="10" font-weight="bold" fill="#3A2E1C">shrine</text>
<rect x="771" y="444" width="99" height="102" fill="#C9A57A" stroke="#6B4F2A" stroke-width="2"/>
<text x="820" y="498" text-anchor="middle" font-size="10" font-weight="bold" fill="#3A2E1C">barracks</text>
<rect x="60" y="450" width="180" height="54" fill="#C9A57A" stroke="#6B4F2A" stroke-width="2"/>
<text x="150" y="480" text-anchor="middle" font-size="10" font-weight="bold" fill="#3A2E1C">senior retainers</text>
<rect x="771" y="186" width="99" height="90" fill="#DDB87A" stroke="#5A3F1E" stroke-width="2"/>
<text x="820" y="234" text-anchor="middle" font-size="10" font-weight="bold" fill="#3A2E1C">guest house</text>
<rect x="60" y="525" width="90" height="60" fill="#E8D2A8" stroke="#6B4F2A" stroke-width="2"/>
<text x="105" y="558" text-anchor="middle" font-size="10" font-weight="bold" fill="#3A2E1C">clerks' room</text>
<rect x="816" y="567" width="54" height="48" fill="#B89868" stroke="#5C4318" stroke-width="2"/>
<text x="843" y="594" text-anchor="middle" font-size="10" font-weight="bold" fill="#3A2E1C">cell</text>
<rect x="183" y="330" width="339" height="102" fill="#DDB87A" stroke="#5A3F1E" stroke-width="2"/>
<text x="352" y="384" text-anchor="middle" font-size="10" font-weight="bold" fill="#3A2E1C">office hall</text>
<rect x="213" y="252" width="111" height="78" fill="#DDB87A" stroke="#5A3F1E" stroke-width="2"/>
<text x="268" y="294" text-anchor="middle" font-size="10" font-weight="bold" fill="#3A2E1C">karo's house</text>
<line x1="60" y1="60" x2="870" y2="60" stroke="#2D2A24" stroke-width="9"/>
<line x1="60" y1="60" x2="60" y2="660" stroke="#2D2A24" stroke-width="9"/>
<line x1="870" y1="60" x2="870" y2="660" stroke="#2D2A24" stroke-width="9"/>
<line x1="60" y1="660" x2="446" y2="660" stroke="#2D2A24" stroke-width="9"/>
<line x1="484" y1="660" x2="870" y2="660" stroke="#2D2A24" stroke-width="9"/>
<line x1="60" y1="330" x2="870" y2="330" stroke="#3F3A30" stroke-width="6"/>
</svg>